<svg width="32" height="40" viewBox="0 0 32 40" fill="none" xmlns="http://www.w3.org/2000/svg">
<path d="M24.3689 33.6988C22.1188 34.8569 18.7151 35.4455 14.9685 35.1434C11.2222 34.8414 7.9574 33.7151 5.9219 32.2117L5.92384 32.2119L17.1999 7.68317L24.401 33.7014L24.3689 33.6988Z" fill="#FF5757"/>
<path d="M10.1804 22.9202C11.7833 24.3567 14.1697 25.7297 16.9844 26.7145C19.0489 27.4368 21.0641 27.8478 22.8391 27.9683L24.0066 32.1901C21.7038 32.1336 18.8237 31.5822 15.8214 30.5319C12.8364 29.4876 10.2545 28.1322 8.42072 26.7492L10.1804 22.9202Z" fill="#FFA9F9"/>
<path d="M14.0912 14.3762C15.1935 15.2003 16.5028 15.9501 17.9487 16.5467C18.5856 16.8095 19.2168 17.0288 19.8335 17.2062L21.0581 21.6304C19.788 21.3708 18.4155 20.9541 17.0102 20.3743C15.3066 19.6714 13.7625 18.816 12.4704 17.9039L14.0912 14.3762Z" fill="#FFA9F9"/>
<path d="M17.5472 2.77861L18.2065 5.21455L20.3999 3.9666L19.5014 6.32482L22.0095 6.60447L19.8965 7.98422L21.7612 9.68464L19.2407 9.55891L19.7498 12.0306L17.7846 10.4474L16.7436 12.7463L16.0844 10.3103L13.8909 11.5583L14.7894 9.20006L12.2813 8.92042L14.3943 7.54066L12.5297 5.84024L15.0501 5.96597L14.541 3.49428L16.5062 5.07748L17.5472 2.77861Z" fill="#FFF7A0"/>
</svg>
