<svg width="177" height="126" viewBox="0 0 177 126" fill="none" xmlns="http://www.w3.org/2000/svg">
<path d="M35.3533 44.3267L35.4616 51.9336L26.6502 53.6449L27.1037 80.4012L17.8212 82.2041L17.3677 55.4478L8.60342 57.1499L8.49514 49.543L35.3533 44.3267ZM37.6086 64.621C37.5804 61.7904 38.0434 59.2231 38.9976 56.9189C39.9518 54.6147 41.2646 52.7298 42.9358 51.2643C44.6385 49.7927 46.5421 48.8525 48.6468 48.4438C50.4688 48.0899 52.0468 48.1583 53.3808 48.649C54.7148 49.1396 55.7364 49.9518 56.4455 51.0854L56.3914 47.2819L65.6268 45.4882L66.0959 72.8283L56.8605 74.622L56.8063 70.8185C56.1333 72.2206 55.1287 73.4262 53.7926 74.4354C52.4565 75.4447 50.8932 76.1232 49.1027 76.4709C46.3383 77.0078 43.9468 76.527 41.928 75.0284C39.9032 73.4983 38.5827 71.147 37.9665 67.9743C37.7652 66.9376 37.6459 65.8199 37.6086 64.621ZM56.6449 60.9238C56.6476 60.4343 56.6093 59.9854 56.53 59.577C56.2738 58.2577 55.6985 57.3099 54.8043 56.7339C53.9415 56.1517 52.9289 55.9735 51.7666 56.1992C50.3845 56.4676 49.2382 57.1955 48.3279 58.3829C47.4115 59.5388 46.9797 61.0081 47.0325 62.7907C47.0298 63.2802 47.0711 63.7448 47.1565 64.1846C47.4128 65.504 47.9723 66.4547 48.8351 67.0369C49.7294 67.613 50.7576 67.7882 51.9199 67.5624C53.3021 67.294 54.4483 66.5661 55.3587 65.3788C56.269 64.1914 56.6977 62.7064 56.6449 60.9238ZM80.2261 46.4668C80.8992 45.0647 81.888 43.8621 83.1927 42.859C84.5288 41.8497 86.0921 41.1712 87.8827 40.8235C90.647 40.2866 93.0386 40.7675 95.0573 42.2661C97.1075 43.7586 98.4406 46.0912 99.0568 49.2639C99.2521 50.2691 99.3714 51.3869 99.4147 52.6172C99.4429 55.4477 98.9829 58.0308 98.0348 60.3664C97.0806 62.6706 95.7522 64.5585 94.0495 66.0301C92.3783 67.4956 90.4903 68.4328 88.3857 68.8415C86.5637 69.1954 84.9888 69.1427 83.6609 68.6834C82.3582 68.1867 81.3336 67.3588 80.587 66.1999L80.6411 70.0034L71.3586 71.8062L70.7592 35.7389L80.0417 33.9361L80.2261 46.4668ZM89.9908 54.4475C89.9935 53.958 89.9522 53.4933 89.8668 53.0535C89.6166 51.7656 89.0445 50.8336 88.1502 50.2575C87.2874 49.6753 86.2748 49.4971 85.1126 49.7229C83.7618 49.9852 82.6156 50.7131 81.6738 51.9065C80.7635 53.0939 80.3317 54.5631 80.3784 56.3143C80.3757 56.8038 80.414 57.2528 80.4933 57.6612C80.7495 58.9805 81.3121 59.947 82.181 60.5606C83.0753 61.1366 84.1035 61.3118 85.2658 61.0861C86.648 60.8176 87.7942 60.0897 88.7046 58.9024C89.6088 57.6837 90.0375 56.1987 89.9908 54.4475ZM115.747 63.5274C113.454 63.9728 111.324 63.9138 109.356 63.3506C107.42 62.7813 105.804 61.7587 104.507 60.283C103.209 58.8072 102.344 56.9542 101.911 54.7239C101.325 51.7082 101.501 48.838 102.439 46.1132C103.408 43.3824 105.015 41.0818 107.26 39.2116C109.504 37.3413 112.182 36.1042 115.292 35.5002C117.585 35.0548 119.699 35.1168 121.635 35.6861C123.603 36.2494 125.238 37.2846 126.541 38.7917C127.87 40.2614 128.751 42.1114 129.184 44.3417C129.776 47.3888 129.587 50.2777 128.618 53.0086C127.643 55.7081 126.033 57.9929 123.788 59.8632C121.538 61.702 118.857 62.9234 115.747 63.5274ZM115.614 55.2897C116.714 55.0761 117.621 54.5414 118.334 53.6856C119.08 52.8237 119.566 51.8003 119.792 50.6155C120.05 49.4245 120.065 48.2479 119.84 47.0856C119.584 45.7662 119.043 44.8281 118.217 44.2713C117.424 43.7083 116.493 43.5305 115.425 43.738C114.294 43.9576 113.371 44.4953 112.657 45.3511C111.975 46.2008 111.505 47.2212 111.247 48.4122C111.021 49.597 111.024 50.7863 111.255 51.98C111.512 53.2993 112.037 54.2405 112.831 54.8035C113.618 55.335 114.546 55.4971 115.614 55.2897ZM145.703 57.7094C143.41 58.1548 141.28 58.0959 139.312 57.5327C137.376 56.9633 135.76 55.9408 134.463 54.465C133.165 52.9893 132.3 51.1362 131.867 48.9059C131.281 45.8903 131.457 43.0201 132.395 40.2953C133.364 37.5644 134.971 35.2639 137.216 33.3936C139.46 31.5234 142.138 30.2863 145.247 29.6823C147.541 29.2369 149.655 29.2989 151.591 29.8682C153.559 30.4314 155.194 31.4666 156.497 32.9738C157.826 34.4435 158.707 36.2934 159.14 38.5238C159.732 41.5708 159.543 44.4598 158.574 47.1907C157.599 49.8901 155.989 52.175 153.744 54.0452C151.493 55.884 148.813 57.1055 145.703 57.7094ZM145.57 49.4717C146.67 49.2582 147.576 48.7235 148.29 47.8677C149.036 47.0058 149.521 45.9824 149.748 44.7975C150.005 43.6065 150.021 42.4299 149.796 41.2676C149.539 39.9483 148.999 39.0102 148.173 38.4533C147.379 37.8903 146.448 37.7126 145.38 37.92C144.25 38.1396 143.327 38.6774 142.613 39.5332C141.931 40.3829 141.461 41.4032 141.203 42.5942C140.977 43.7791 140.979 44.9684 141.211 46.1621C141.468 47.4814 141.993 48.4226 142.787 48.9855C143.574 49.5171 144.502 49.6791 145.57 49.4717Z" fill="white"/>
<path d="M151.251 70.5513C159.112 69.0245 166.723 74.1596 168.25 82.0209C169.776 89.8821 164.641 97.4926 156.78 99.0194L33.0912 123.042C25.23 124.569 17.6195 119.434 16.0927 111.572C14.5659 103.711 19.701 96.1006 27.5622 94.5738L151.251 70.5513ZM133.433 82.993C132.25 83.2228 131.274 83.6293 130.507 84.2128C129.749 84.7838 129.225 85.5266 128.936 86.4411C128.644 87.3453 128.619 88.4208 128.861 89.6669C129.103 90.9129 129.53 91.9057 130.141 92.6455C130.751 93.3852 131.516 93.8835 132.435 94.1397C133.363 94.3833 134.419 94.3901 135.602 94.1604C136.785 93.9305 137.756 93.53 138.514 92.9591C139.281 92.3755 139.808 91.6261 140.098 90.7115C140.388 89.7969 140.412 88.7164 140.17 87.4704C139.928 86.2244 139.502 85.2365 138.893 84.5072C138.282 83.7676 137.513 83.2759 136.586 83.0322C135.667 82.7761 134.616 82.7633 133.433 82.993ZM31.9303 102.902L34.026 113.692L40.6694 112.402C41.2663 112.286 41.7837 112.066 42.2206 111.742C42.6575 111.419 42.9803 111.013 43.1901 110.527C43.3978 110.03 43.4421 109.473 43.3222 108.855C43.2205 108.332 43.0397 107.905 42.7801 107.575C42.5309 107.243 42.2289 107.003 41.8741 106.855C41.5173 106.696 41.1368 106.612 40.7331 106.604L40.7208 106.54C41.0354 106.371 41.3037 106.156 41.5248 105.896C41.7563 105.634 41.9184 105.319 42.0104 104.954C42.1128 104.586 42.1181 104.167 42.0266 103.695C41.9228 103.161 41.6962 102.722 41.3467 102.377C41.0077 102.03 40.5917 101.79 40.0987 101.657C39.6058 101.525 39.0817 101.513 38.5267 101.62L31.9303 102.902ZM48.8638 99.6128L50.9596 110.403L55.4671 109.528C56.6399 109.3 57.5922 108.914 58.3232 108.37C59.0646 107.824 59.5672 107.112 59.8315 106.235C60.1041 105.345 60.1219 104.288 59.884 103.063C59.6441 101.828 59.2328 100.859 58.6511 100.157C58.0777 99.4428 57.3451 98.9705 56.4532 98.7417C55.5717 98.5108 54.5442 98.5096 53.3714 98.7374L48.8638 99.6128ZM63.4439 96.7811L61.4875 108.359L64.3778 107.797L64.658 105.803L68.9623 104.967L69.9686 106.711L72.9692 106.129L66.8213 96.1252L63.4439 96.7811ZM69.7605 95.5543L75.2513 101.253L76.081 105.524L78.908 104.975L78.0784 100.704L80.9911 93.3731L77.9119 93.9712L76.2935 98.4746L76.2149 98.4899L73.0122 94.9228L69.7605 95.5543ZM84.5419 92.6835L86.6376 103.474L95.6528 101.723L95.2257 99.524L89.0213 100.729L88.5912 98.5146L93.9155 97.4805L93.4975 95.3283L88.1732 96.3624L87.7798 94.3368L93.8739 93.1532L93.4468 90.954L84.5419 92.6835ZM95.4926 90.5567L97.5883 101.347L102.096 100.472C103.269 100.244 104.221 99.8583 104.952 99.3143C105.693 98.7682 106.196 98.056 106.46 97.1789C106.733 96.2894 106.751 95.2321 106.513 94.0072C106.273 92.7718 105.862 91.803 105.28 91.1011C104.706 90.3867 103.974 89.9144 103.082 89.6856C102.2 89.4547 101.173 89.4535 100 89.6813L95.4926 90.5567ZM107.349 88.254L109.445 99.0445L112.257 98.4984L110.161 87.7079L107.349 88.254ZM111.717 87.4057L112.165 89.7151L115.668 89.0348L117.315 97.5159L120.127 96.9698L118.48 88.4887L121.982 87.8085L121.533 85.4991L111.717 87.4057ZM123.117 85.1916L125.213 95.9821L128.024 95.436L125.929 84.6455L123.117 85.1916ZM141.002 81.7181L143.097 92.5086L145.705 92.0022L144.497 85.7825L144.572 85.7521C144.667 85.8529 144.79 85.9808 144.94 86.1362C145.1 86.2898 145.265 86.4374 145.433 86.5785L150.621 91.0474L153.102 90.5656L151.006 79.775L148.399 80.2813L149.607 86.501L149.532 86.5326C149.461 86.4485 149.353 86.3383 149.207 86.2036C149.06 86.0586 148.908 85.9203 148.752 85.7878C148.606 85.6532 148.488 85.5508 148.399 85.4813L143.499 81.2331L141.002 81.7181ZM133.86 85.1912C134.31 85.1039 134.721 85.0946 135.093 85.1636C135.465 85.2326 135.792 85.3761 136.073 85.5931C136.364 85.808 136.604 86.0927 136.793 86.4471C136.981 86.8017 137.122 87.2203 137.216 87.702L137.35 88.3932C137.441 88.8643 137.466 89.2996 137.424 89.6988C137.382 90.098 137.266 90.4518 137.076 90.7602C136.897 91.0667 136.648 91.322 136.329 91.5252C136.01 91.7284 135.625 91.8738 135.175 91.9612C134.714 92.0507 134.297 92.061 133.925 91.992C133.553 91.923 133.227 91.7795 132.946 91.5625C132.664 91.3455 132.429 91.0601 132.241 90.7055C132.053 90.351 131.913 89.938 131.821 89.4669L131.687 88.7757C131.593 88.2941 131.567 87.8531 131.609 87.4538C131.651 87.0546 131.763 86.7018 131.942 86.3954C132.122 86.0889 132.371 85.8336 132.69 85.6304C133.009 85.4272 133.399 85.2807 133.86 85.1912ZM38.9772 108.053C39.2285 108.004 39.4476 108.01 39.6334 108.072C39.8296 108.131 39.9866 108.242 40.1048 108.404C40.2315 108.553 40.3168 108.738 40.3596 108.957C40.4389 109.366 40.393 109.69 40.2222 109.93C40.0619 110.168 39.8136 110.319 39.4787 110.384L36.4167 110.979L35.9622 108.639L38.9772 108.053ZM53.7669 100.943C54.2066 100.857 54.6011 100.846 54.9501 100.909C55.2991 100.971 55.6069 101.101 55.8736 101.299C56.1402 101.498 56.3606 101.765 56.5345 102.1C56.7083 102.436 56.8411 102.839 56.9326 103.31L57.0607 103.97C57.1502 104.43 57.177 104.849 57.1414 105.225C57.1059 105.602 57.0015 105.932 56.8283 106.215C56.6552 106.499 56.4186 106.736 56.1184 106.924C55.8183 107.113 55.448 107.25 55.0084 107.335L53.3442 107.658L52.1027 101.266L53.7669 100.943ZM100.396 91.8865C100.835 91.8011 101.23 91.7901 101.579 91.8527C101.928 91.9153 102.236 92.0453 102.502 92.2434C102.769 92.4415 102.989 92.7085 103.163 93.0442C103.337 93.3798 103.47 93.7831 103.561 94.2542L103.689 94.9137C103.779 95.3743 103.806 95.7931 103.77 96.1694C103.735 96.5457 103.63 96.8758 103.457 97.1594C103.284 97.4429 103.047 97.6796 102.747 97.8682C102.447 98.0568 102.077 98.1934 101.637 98.2788L99.9729 98.602L98.7314 92.2098L100.396 91.8865ZM44.1387 106.17L44.5567 108.322L48.5312 107.55L48.1132 105.398L44.1387 106.17ZM65.6004 98.905C65.6812 99.0415 65.7673 99.2043 65.8583 99.3931C65.9492 99.5817 66.0404 99.7702 66.1313 99.9589C66.2308 100.135 66.3238 100.308 66.4108 100.476C66.506 100.631 66.586 100.762 66.6503 100.869L67.8624 102.997L64.9251 103.568L65.2679 101.137C65.2941 100.937 65.3195 100.704 65.344 100.438C65.3789 100.171 65.409 99.9042 65.4335 99.6388C65.4684 99.3712 65.4878 99.1333 65.4911 98.9263L65.6004 98.905ZM38.0054 103.889C38.3091 103.83 38.5792 103.876 38.8148 104.026C39.0503 104.175 39.2003 104.418 39.2654 104.753C39.3102 104.983 39.3022 105.192 39.2405 105.378C39.1893 105.561 39.0884 105.717 38.9391 105.844C38.8004 105.968 38.6157 106.053 38.3856 106.098L35.5748 106.644L35.1477 104.444L38.0054 103.889Z" fill="#0CC0DF"/>
<path d="M157.149 33.75C154.899 34.908 151.496 35.4966 147.749 35.1946C144.003 34.8925 140.738 33.7662 138.702 32.2629L138.704 32.263L149.98 7.73432L157.182 33.7526L157.149 33.75Z" fill="#FF5757"/>
<path d="M142.961 22.9714C144.564 24.4078 146.95 25.781 149.765 26.7657C151.829 27.488 153.845 27.899 155.62 28.0196L156.787 32.2413C154.484 32.1848 151.604 31.6334 148.602 30.5831C145.617 29.5388 143.035 28.1834 141.201 26.8004L142.961 22.9714Z" fill="#FFA9F9"/>
<path d="M146.872 14.4273C147.974 15.2514 149.283 16.0012 150.729 16.5978C151.366 16.8605 151.997 17.0799 152.614 17.2572L153.839 21.6815C152.569 21.4218 151.196 21.0052 149.791 20.4254C148.087 19.7225 146.543 18.8671 145.251 17.9549L146.872 14.4273Z" fill="#FFA9F9"/>
<path d="M150.328 2.82976L150.987 5.26569L153.18 4.01774L152.282 6.37597L154.79 6.65561L152.677 8.03537L154.542 9.73579L152.021 9.61005L152.53 12.0818L150.565 10.4985L149.524 12.7974L148.865 10.3615L146.671 11.6094L147.57 9.2512L145.062 8.97156L147.175 7.59181L145.31 5.89139L147.831 6.01712L147.322 3.54542L149.287 5.12863L150.328 2.82976Z" fill="#FFF7A0"/>
</svg>
